<?xml version="1.0" standalone="no"?>
<!DOCTYPE svg PUBLIC "-//W3C//DTD SVG 20010904//EN"
 "http://www.w3.org/TR/2001/REC-SVG-20010904/DTD/svg10.dtd">
<svg version="1.0" xmlns="http://www.w3.org/2000/svg"
 width="260.000000pt" height="260.000000pt" viewBox="0 0 260.000000 260.000000"
 preserveAspectRatio="xMidYMid meet">
<metadata>
Created by potrace 1.11, written by Peter Selinger 2001-2013
</metadata>
<g transform="translate(0.000000,260.000000) scale(0.100000,-0.100000)"
fill="#000000" stroke="none">
<path d="M1309 2527 c-78 -78 -165 -210 -152 -230 3 -6 1 -7 -5 -3 -11 6 -14
0 -11 -20 0 -3 -7 -16 -15 -30 -9 -13 -14 -24 -11 -24 2 0 0 -12 -6 -27 -19
-48 -29 -109 -33 -191 -4 -64 -11 -85 -24 -67 -16 22 -51 46 -80 55 -33 9 -39
-2 -14 -28 7 -8 10 -18 7 -23 -4 -5 -1 -9 4 -9 6 0 10 -3 9 -7 -1 -8 2 -16 19
-60 4 -10 8 -25 9 -33 1 -8 5 -31 9 -50 11 -53 6 -200 -6 -200 -4 0 -6 -8 -4
-17 1 -10 -4 -26 -13 -35 -8 -10 -12 -18 -8 -18 19 0 -77 -132 -144 -199 -19
-19 -63 -71 -97 -115 -35 -45 -66 -85 -71 -91 -18 -22 -77 -130 -74 -137 1 -5
-2 -8 -7 -8 -8 0 -12 -9 -26 -55 -2 -5 -10 -28 -18 -50 -8 -22 -13 -48 -11
-57 1 -10 -1 -18 -6 -18 -4 0 -6 -60 -4 -132 5 -154 5 -158 15 -158 4 0 6 -8
5 -17 -4 -27 37 -141 80 -223 41 -77 116 -163 179 -205 l37 -26 -7 28 c-5 15
-8 36 -9 46 0 9 -4 17 -9 17 -5 0 -7 6 -4 13 2 6 -2 29 -9 50 -7 20 -10 37 -6
37 4 0 0 5 -8 10 -10 6 -11 10 -3 10 9 0 10 7 3 25 -5 14 -10 36 -9 48 0 12
-2 40 -4 62 -3 22 0 48 5 59 8 14 7 17 -3 11 -9 -6 -10 -3 -4 11 4 10 9 30 11
44 1 14 5 32 7 40 19 74 29 100 39 100 6 0 8 3 5 6 -7 7 22 64 38 76 6 4 6 8
2 8 -5 0 2 13 15 29 12 16 32 41 43 56 11 16 26 34 33 41 6 7 12 16 12 21 0 4
11 20 25 35 14 15 25 31 25 36 0 5 11 22 25 38 14 16 25 34 25 41 0 6 4 13 8
15 14 5 82 149 76 159 -3 5 0 9 5 9 6 0 11 13 11 30 0 17 5 29 11 27 25 -5
189 -176 202 -210 3 -9 11 -17 17 -17 5 0 10 -4 10 -10 0 -5 13 -32 30 -60 16
-27 27 -50 25 -50 -3 0 2 -11 11 -25 9 -14 13 -25 10 -25 -4 0 -2 -8 3 -18 34
-63 47 -280 19 -308 -4 -3 -4 -12 -2 -19 3 -7 1 -16 -5 -19 -6 -4 -8 -13 -4
-21 3 -8 -1 -15 -8 -15 -7 0 -9 -3 -6 -6 3 -4 1 -16 -5 -28 -12 -21 -19 -46
-13 -46 8 0 85 80 85 88 0 5 7 12 15 16 8 3 15 10 15 17 0 6 9 24 21 40 11 16
18 29 15 29 -4 0 1 17 9 37 9 20 18 55 22 78 8 54 10 165 3 165 -3 0 -6 18 -7
40 -2 22 -1 40 1 40 7 0 59 -85 59 -97 0 -7 4 -13 8 -13 7 0 21 -40 34 -95 1
-5 5 -17 9 -26 4 -8 8 -43 9 -77 1 -34 6 -62 10 -62 5 0 5 -4 2 -10 -11 -19
-14 -50 -4 -50 6 0 7 -6 2 -12 -4 -7 -8 -26 -9 -43 -2 -39 -19 -146 -24 -152
-3 -3 -4 -9 -14 -48 -4 -16 -11 -38 -17 -47 -5 -10 -9 -27 -9 -38 0 -11 -4
-20 -8 -20 -5 0 -9 -6 -9 -12 0 -7 -8 -30 -17 -52 -21 -46 -14 -44 54 14 57
48 145 162 172 220 28 62 67 160 63 160 -3 0 -1 10 4 23 10 25 22 107 25 173
2 22 6 45 9 51 4 6 4 13 0 17 -4 3 -8 30 -9 59 -3 48 -13 128 -20 152 -2 6 -5
19 -8 30 -3 11 -9 34 -15 52 -5 17 -7 34 -3 37 3 3 0 6 -6 6 -7 0 -11 3 -11 8
1 4 0 10 -1 15 -1 4 -4 12 -5 17 -1 6 -4 12 -5 15 -1 3 -3 8 -5 13 -2 9 -22
57 -38 95 -7 15 -15 27 -19 27 -5 0 -8 7 -8 15 0 14 -18 53 -30 65 -8 8 -70
100 -70 104 0 16 -216 236 -232 236 -4 0 -8 5 -8 10 0 6 -10 21 -23 33 -44 43
-137 199 -137 232 0 8 -5 15 -12 15 -6 0 -9 2 -6 6 3 3 -1 26 -9 52 -31 104
-35 270 -8 392 4 14 8 36 11 49 3 13 12 40 20 59 8 19 13 37 10 39 -2 2 -23
-16 -47 -40z"/>
</g>
</svg>
